<svg width="25" height="25" viewBox="0 0 25 25" fill="none" xmlns="http://www.w3.org/2000/svg">
<path d="M21.3722 11.5095C21.3756 12.8293 21.0673 14.1313 20.4722 15.3095C19.7666 16.7212 18.6819 17.9086 17.3396 18.7387C15.9973 19.5688 14.4504 20.0088 12.8722 20.0095C11.5523 20.0129 10.2503 19.7045 9.07219 19.1095L3.37219 21.0095L5.27219 15.3095C4.67712 14.1313 4.36875 12.8293 4.37219 11.5095C4.3728 9.93122 4.8128 8.38431 5.64291 7.04201C6.47302 5.69971 7.66045 4.61503 9.07219 3.90946C10.2503 3.31439 11.5523 3.00602 12.8722 3.00946H13.3722C15.4565 3.12445 17.4252 4.00422 18.9013 5.48032C20.3774 6.95642 21.2572 8.92511 21.3722 11.0095V11.5095Z" stroke="#A6A6A6" stroke-width="2" stroke-linecap="round" stroke-linejoin="round"/>
</svg>
