<svg width="24" height="21" viewBox="0 0 24 21" fill="none" xmlns="http://www.w3.org/2000/svg">
<path d="M5.61736 5.54167C5.61736 5.77373 5.52649 5.99629 5.36474 6.16038C5.20299 6.32448 4.98361 6.41667 4.75486 6.41667C4.52611 6.41667 4.30673 6.32448 4.14498 6.16038C3.98323 5.99629 3.89236 5.77373 3.89236 5.54167C3.89236 5.3096 3.98323 5.08704 4.14498 4.92295C4.30673 4.75885 4.52611 4.66667 4.75486 4.66667C4.98361 4.66667 5.20299 4.75885 5.36474 4.92295C5.52649 5.08704 5.61736 5.3096 5.61736 5.54167ZM4.75831 14C4.52956 14 4.31018 14.0922 4.14843 14.2563C3.98668 14.4204 3.89581 14.6429 3.89581 14.875C3.89581 15.1071 3.98668 15.3296 4.14843 15.4937C4.31018 15.6578 4.52956 15.75 4.75831 15.75H10.5083C10.7371 15.75 10.9564 15.6578 11.1182 15.4937C11.2799 15.3296 11.3708 15.1071 11.3708 14.875C11.3708 14.6429 11.2799 14.4204 11.1182 14.2563C10.9564 14.0922 10.7371 14 10.5083 14H4.75831ZM3.89581 10.2083C3.89581 9.97627 3.98668 9.75371 4.14843 9.58961C4.31018 9.42552 4.52956 9.33333 4.75831 9.33333H10.5083C10.6216 9.33333 10.7337 9.35597 10.8384 9.39994C10.943 9.44391 11.0381 9.50836 11.1182 9.58961C11.1983 9.67087 11.2618 9.76732 11.3052 9.87348C11.3485 9.97964 11.3708 10.0934 11.3708 10.2083C11.3708 10.3232 11.3485 10.437 11.3052 10.5432C11.2618 10.6493 11.1983 10.7458 11.1182 10.8271C11.0381 10.9083 10.943 10.9728 10.8384 11.0167C10.7337 11.0607 10.6216 11.0833 10.5083 11.0833H4.75831C4.52956 11.0833 4.31018 10.9911 4.14843 10.8271C3.98668 10.663 3.89581 10.4404 3.89581 10.2083ZM15.3602 21C15.8856 20.9964 16.3937 20.8091 16.7988 20.4697C17.2039 20.1303 17.4814 19.6595 17.5843 19.1368L18.1363 16.3333H21.3977C21.9314 16.3333 22.4433 16.1182 22.8207 15.7353C23.1981 15.3525 23.4102 14.8331 23.4102 14.2917V7.3045C23.4102 6.60712 23.138 5.93812 22.6531 5.44379C22.1682 4.94947 21.5101 4.67006 20.8227 4.66667V4.662H14.7852V2.625C14.7852 1.92881 14.5125 1.26113 14.0273 0.768845C13.542 0.276562 12.8839 0 12.1977 0H2.99766C2.31141 0 1.65327 0.276562 1.16802 0.768845C0.682767 1.26113 0.410156 1.92881 0.410156 2.625V17.2083C0.410156 18.2139 0.803927 19.1784 1.50484 19.8894C2.20576 20.6005 3.15641 21 4.14766 21H15.3602ZM2.13516 2.625C2.13516 2.39294 2.22603 2.17038 2.38778 2.00628C2.54953 1.84219 2.76891 1.75 2.99766 1.75H12.1977C12.4264 1.75 12.6458 1.84219 12.8075 2.00628C12.9693 2.17038 13.0602 2.39294 13.0602 2.625V18.683C13.0602 18.8778 13.0832 19.068 13.1292 19.25H4.14766C3.61391 19.25 3.10202 19.0349 2.7246 18.652C2.34719 18.2691 2.13516 17.7498 2.13516 17.2083V2.625ZM14.7852 6.412H18.3617C18.3189 6.53453 18.285 6.66009 18.2605 6.78767L15.8926 18.7938C15.866 18.9323 15.7894 19.0558 15.6778 19.1401C15.5662 19.2243 15.4276 19.2634 15.2892 19.2495C15.1507 19.2356 15.0224 19.1699 14.9292 19.0652C14.836 18.9604 14.7846 18.8241 14.7852 18.683V6.412ZM19.951 7.13067C19.9926 6.91352 20.1126 6.71995 20.2875 6.58787C20.4624 6.45579 20.6797 6.39472 20.8966 6.41662C21.1136 6.43852 21.3147 6.5418 21.4606 6.70625C21.6064 6.87069 21.6865 7.08446 21.6852 7.30567V14.2917C21.6852 14.369 21.6549 14.4432 21.6009 14.4979C21.547 14.5526 21.4739 14.5833 21.3977 14.5833H18.4824L19.951 7.13067Z" fill="#A6A6A6"/>
</svg>
